<?xml version="1.0" encoding="UTF-8"?>
<!-- Generator: Adobe Illustrator 21.1.0, SVG Export Plug-In . SVG Version: 6.00 Build 0)  -->
<svg version="1.1" id="Layer_1" xmlns="http://www.w3.org/2000/svg" xmlns:xlink="http://www.w3.org/1999/xlink" x="0px" y="0px" viewBox="0 0 885.6 158.4" style="enable-background:new 0 0 885.6 158.4;" xml:space="preserve">
<style type="text/css">
	.st0{fill:#66747C;}
	.st1{fill:#363639;}
	.st2{fill:#2D0A3D;}
	.st3{fill:#FFFFFF;}
	.st4{fill:#D7EFFC;}
	.st5{fill:#127DC2;}
	.st6{fill:#FFB547;}
	.st7{fill:#009D4E;}
</style>
<g>
	<g>
		<path class="st0" d="M665.9,117.7H662v5.9h3.9c0.9,0,1.7-0.3,2.3-0.8c0.6-0.5,0.8-1.2,0.8-2.1c0-0.9-0.3-1.6-0.8-2.1    C667.6,118,666.9,117.7,665.9,117.7z"/>
		<polygon class="st0" points="434.5,128.1 439.8,128.1 437.2,120.3   "/>
		<polygon class="st0" points="487.7,128.1 493,128.1 490.4,120.3   "/>
		<path class="st0" d="M692.6,117.7h-3.9v5.6h3.9c0.9,0,1.6-0.3,2.2-0.8c0.6-0.5,0.8-1.2,0.8-2c0-0.8-0.3-1.5-0.8-2    C694.2,118,693.5,117.7,692.6,117.7z"/>
		<path class="st0" d="M638.6,117.7h-3.9v5.6h3.9c0.9,0,1.6-0.3,2.2-0.8c0.6-0.5,0.8-1.2,0.8-2c0-0.8-0.3-1.5-0.8-2    C640.2,118,639.5,117.7,638.6,117.7z"/>
		<polygon class="st0" points="321.5,128.1 326.8,128.1 324.2,120.3   "/>
		<path class="st0" d="M210.1,101.8v46.7H882v-46.7H210.1z M329.1,135.4l-1.3-3.8h-7.6l-1.3,3.8h-4.3l7.8-21.4h3.3l7.8,21.4H329.1z     M360.2,135.4h-3.7l-8.5-13.1v13.1h-4.2V114h3.7l8.5,13.1V114h4.2V135.4z M391.8,135.4h-4.2V114h4.2V135.4z M416.1,133.8    c-1.5,1.2-3.4,1.7-5.7,1.7c-3.3,0-5.9-0.9-7.8-2.8l2.7-2.7c1.2,1.2,2.9,1.8,5.2,1.8c2.5,0,3.8-0.9,3.8-2.6c0-0.8-0.2-1.4-0.6-1.8    c-0.4-0.4-1.1-0.6-1.9-0.8l-2.6-0.4c-3.8-0.5-5.7-2.5-5.7-6c0-1.9,0.7-3.5,2-4.7c1.3-1.2,3.1-1.8,5.4-1.8c2.9,0,5.2,0.8,6.9,2.5    l-2.6,2.6c-1-1-2.5-1.5-4.4-1.5c-1.1,0-1.9,0.3-2.4,0.8c-0.6,0.5-0.9,1.2-0.9,1.9c0,0.6,0.2,1.1,0.7,1.6s1.1,0.7,1.9,0.8l2.5,0.4    c1.8,0.3,3.2,0.8,4.1,1.6c1.1,1,1.7,2.6,1.7,4.5C418.4,131.1,417.6,132.7,416.1,133.8z M442.2,135.4l-1.3-3.8h-7.6l-1.3,3.8h-4.3    l7.8-21.4h3.3l7.8,21.4H442.2z M460.4,127.8c0.1,1.3,0.5,2.3,1,2.9c0.7,0.7,1.5,1.1,2.7,1.1c1.9,0,3.1-1,3.6-3h4.2    c-0.4,2.2-1.3,3.9-2.7,5c-1.4,1.1-3.1,1.7-5.1,1.7c-2.3,0-4.2-0.8-5.8-2.3c-1-1-1.6-2.2-1.9-3.7c-0.2-0.9-0.2-2.5-0.2-4.8    c0-2.3,0.1-3.9,0.2-4.8c0.3-1.5,0.9-2.7,1.9-3.7c1.6-1.6,3.5-2.3,5.8-2.3c2.1,0,3.8,0.6,5.2,1.7c1.4,1.2,2.3,2.8,2.7,5h-4.2    c-0.5-2-1.7-3-3.6-3c-1.3,0-2.2,0.5-2.9,1.4c-0.5,0.8-0.8,2.7-0.8,5.7C460.3,126.3,460.4,127.4,460.4,127.8z M495.4,135.4    l-1.3-3.8h-7.6l-1.3,3.8h-4.3l7.8-21.4h3.3l7.8,21.4H495.4z M538.9,117.7H529v5h8.4v3.7H529v5.2h9.9v3.7h-14.1V114h14.1V117.7z     M567,135.4h-3.7l-8.5-13.1v13.1h-4.2V114h3.7l8.5,13.1V114h4.2V135.4z M593.5,117.7h-5.6v17.6h-4.2v-17.6h-5.6V114h15.3V117.7z     M618.7,117.7h-9.9v5h8.4v3.7h-8.4v5.2h9.9v3.7h-14.1V114h14.1V117.7z M641.9,135.4l-4.2-8.5h-3v8.5h-4.2V114h8.4    c2.1,0,3.8,0.6,5.1,1.9c1.2,1.2,1.8,2.8,1.8,4.6c0,1.4-0.4,2.6-1.2,3.7c-0.7,0.9-1.6,1.6-2.7,2l4.8,9.2H641.9z M671.3,125.3    c-1.3,1.3-3,2-5.2,2H662v8h-4.2V114h8.3c2.1,0,3.9,0.7,5.2,2c1.2,1.2,1.9,2.8,1.9,4.7C673.2,122.5,672.6,124.1,671.3,125.3z     M695.8,135.4l-4.2-8.5h-3v8.5h-4.2V114h8.4c2.1,0,3.8,0.6,5.1,1.9c1.2,1.2,1.8,2.8,1.8,4.6c0,1.4-0.4,2.6-1.2,3.7    c-0.7,0.9-1.6,1.6-2.7,2l4.8,9.2H695.8z M716,135.4h-4.2V114h4.2V135.4z M740.3,133.8c-1.5,1.2-3.4,1.7-5.7,1.7    c-3.3,0-5.9-0.9-7.8-2.8l2.7-2.7c1.2,1.2,2.9,1.8,5.2,1.8c2.5,0,3.8-0.9,3.8-2.6c0-0.8-0.2-1.4-0.6-1.8c-0.4-0.4-1.1-0.6-1.9-0.8    l-2.6-0.4c-3.8-0.5-5.7-2.5-5.7-6c0-1.9,0.7-3.5,2-4.7c1.3-1.2,3.1-1.8,5.4-1.8c2.9,0,5.2,0.8,6.9,2.5l-2.6,2.6    c-1-1-2.5-1.5-4.4-1.5c-1.1,0-1.9,0.3-2.4,0.8c-0.6,0.5-0.9,1.2-0.9,1.9c0,0.6,0.2,1.1,0.7,1.6s1.1,0.7,1.9,0.8l2.5,0.4    c1.8,0.3,3.2,0.8,4.1,1.6c1.1,1,1.7,2.6,1.7,4.5C742.5,131.1,741.8,132.7,740.3,133.8z M768.2,117.7h-9.9v5h8.4v3.7h-8.4v5.2h9.9    v3.7h-14.1V114h14.1V117.7z"/>
	</g>
	<path class="st1" d="M207.3,45.6v-0.2c0-18.6,14.2-33.2,33.5-33.2c13,0,21.4,5.5,27.1,13.2l-13.3,10.3c-3.6-4.5-7.8-7.5-13.9-7.5   c-8.9,0-15.2,7.7-15.2,17v0.2c0,9.6,6.3,17,15.2,17c6.7,0,10.6-3.1,14.4-7.7l13.3,9.5c-6,8.3-14.1,14.4-28.2,14.4   C222,78.6,207.3,64.7,207.3,45.6z"/>
	<path class="st1" d="M285.1,13.5h18.7L319,38.2l15.2-24.7h18.7v63.8h-17.6V40.7l-16.3,25h-0.4l-16.2-24.9v36.6h-17.3V13.5z"/>
	<path class="st1" d="M373.4,13.5h18.7l15.2,24.7l15.2-24.7h18.7v63.8h-17.6V40.7l-16.3,25h-0.4l-16.2-24.9v36.6h-17.3V13.5z"/>
	<path class="st1" d="M462.1,13.5h17.7v63.8h-17.7V13.5z"/>
	<path class="st1" d="M519.6,13.5h11.2v63.8h-11.2V13.5z"/>
	<path class="st1" d="M546.5,29.2h11v7.4c3.1-4.5,7.6-8.4,15-8.4c10.8,0,17.1,7.3,17.1,18.4v30.7h-11V50c0-7.5-3.7-11.8-10.3-11.8   c-6.4,0-10.8,4.5-10.8,11.9v27.2h-11V29.2z"/>
	<path class="st1" d="M599.1,71l4.9-7.5c5.3,3.9,10.8,5.9,15.8,5.9c4.7,0,7.5-2,7.5-5.2v-0.2c0-3.7-5.1-5-10.8-6.7   c-7.1-2-15-4.9-15-14.1v-0.2c0-9.1,7.6-14.7,17.1-14.7c6,0,12.6,2.1,17.7,5.5l-4.4,7.8c-4.6-2.8-9.6-4.6-13.6-4.6   c-4.3,0-6.7,2-6.7,4.7v0.2c0,3.6,5.2,5,10.8,6.8c7,2.2,14.9,5.4,14.9,14v0.2c0,10.1-7.8,15.1-17.9,15.1   C612.7,78.3,605.1,75.8,599.1,71z"/>
	<path class="st1" d="M650.1,64V38.7H644v-9.5h6.1V16h11v13.2H674v9.5h-12.9v23.6c0,4.3,2.2,6,5.9,6c2.5,0,4.6-0.5,6.8-1.6v9   c-2.7,1.6-5.7,2.5-9.9,2.5C655.8,78.2,650.1,74.6,650.1,64z"/>
	<path class="st1" d="M685.5,11.3h11.8v10.5h-11.8V11.3z M685.9,29.2h11v48.1h-11V29.2z"/>
	<path class="st1" d="M713.6,64V38.7h-6.1v-9.5h6.1V16h11v13.2h12.9v9.5h-12.9v23.6c0,4.3,2.2,6,5.9,6c2.5,0,4.7-0.5,6.8-1.6v9   c-2.7,1.6-5.7,2.5-9.9,2.5C719.4,78.2,713.6,74.6,713.6,64z"/>
	<path class="st1" d="M748.2,59.8V29.2h11v27.3c0,7.5,3.7,11.7,10.3,11.7c6.4,0,10.8-4.4,10.8-11.8V29.2h11.1v48.1h-11.1v-7.5   c-3.1,4.6-7.6,8.5-15,8.5C754.5,78.3,748.2,71,748.2,59.8z"/>
	<path class="st1" d="M807.6,64V38.7h-6.1v-9.5h6.1V16h11v13.2h12.9v9.5h-12.9v23.6c0,4.3,2.2,6,5.9,6c2.5,0,4.6-0.5,6.8-1.6v9   c-2.7,1.6-5.7,2.5-9.9,2.5C813.3,78.2,807.6,74.6,807.6,64z"/>
	<path class="st1" d="M838.8,53.5v-0.2c0-13.8,9.8-25.1,23.5-25.1c15.3,0,23.1,12,23.1,25.9c0,1-0.1,2-0.2,3.1h-35.4   c1.2,7.8,6.7,12.2,13.9,12.2c5.4,0,9.2-2,13-5.7l6.5,5.7c-4.6,5.5-10.8,9-19.7,9C849.5,78.4,838.8,68.3,838.8,53.5z M874.4,49.9   c-0.7-7.1-4.9-12.7-12.2-12.7c-6.7,0-11.5,5.2-12.5,12.7H874.4z"/>
	<g>
		<path class="st2" d="M134.5,27c5.3,15.6-2.6,46.5-24.3,72.4c-25.1,29.8-61.2,50.8-79.2,40.8c0.6,1.1,1.3,2.1,2.1,3    c2.5,1.8,5,3.4,7.6,4.9c16.7,5.1,49.8-11,74.7-40.6C137,81.6,146.1,53,142.8,35.8L134.5,27z"/>
		<path class="st2" d="M44.5,8.7C33.8,18.9,20.3,51.6,32.3,88.5c11.7,36.1,43.9,64.3,59.2,68c1.5,0.4,3.1,0.3,4.6,0c0,0,0,0,0,0    c2.4-0.5,4.7-1.7,6.2-3.6c0,0,0,0,0,0C86,149.7,52.6,119.7,41,83.9C29.4,48,43.4,18.2,54.9,6.1c0,0,0,0-0.1,0L44.5,8.7z"/>
		<path class="st2" d="M150.8,110.3c1.5-3.3,1.7-5.3-0.2-8.4c-7.1-11.5-27.9-30.5-55.5-47.6C66,36.2,37.8,25.6,25.1,25.3L18.8,29    L18.4,31c-0.1,0.3-0.2,0.7-0.4,1c-1.3,2.4-3.3,5.8-4.5,7.8c1.8-1.9,5.1-3.5,7.1-3.5c14.8-0.7,42.7,7.8,70.2,24.9    c27.5,17.1,47,38,52.9,51.6c1,3.6-2,6.5-2,6.5l6.6-5.4l0.1-0.9L150.8,110.3z"/>
		<path class="st3" d="M13.6,39.8c-0.4,0.5-0.8,0.9-1,1.4C12.3,41.8,12.8,41.1,13.6,39.8z"/>
		<path class="st4" d="M116.7,17.1c35.9,21.6,48.2,66.9,27.5,101.2l2.8,1.7c22.5-37.4,10.4-86-27-108.5C82.7-11.1,34.1,1,11.6,38.4    l2.8,1.7C35.1,5.8,80.9-4.5,116.7,17.1z"/>
		<path class="st5" d="M38.6,146.9c37.4,22.5,86,10.5,108.5-27l-2.8-1.7c-20.6,34.3-65.4,43.4-101.2,21.9    C7.2,118.6-6.2,74.4,14.4,40.1l-2.8-1.7C-10.9,75.8,1.2,124.4,38.6,146.9z"/>
		<path class="st5" d="M130.2,18.7c-0.8-0.7-1.7-1.4-2.5-2c-1.9-1.5-3.8-2.8-5.8-4.1c-18.7-9.1-55.3,4.1-81.2,34.8    C14.9,78.1,8.8,115.7,21,132.6c1.6,1.7,3.3,3.4,5,5c0.8,0.7,1.6,1.4,2.4,2.1c1.5,1.2,3,2.4,4.5,3.5c-0.8-0.9-1.5-1.9-2.1-3    c-8.2-15.4,4.8-49.3,29.9-79.1c25.1-29.8,53.7-45.6,70.3-40.1c1.2,0.4,2.3,0.9,3.3,1.5C133.1,21.2,131.7,19.9,130.2,18.7z"/>
		<path class="st6" d="M128.1,64.4C115.8,26.5,82.9,1.5,66,1.3c-2.2,0.4-4.4,0.8-6.5,1.4C58,3,56.5,3.5,55,4    c-1.6,0.5-3.1,1.1-4.7,1.7c1.5-0.2,3,0,4.6,0.4c13.6,4,42,28.7,53.6,64.5c11.6,35.8,2.6,71-6.1,82.2c-1,1.3-2.2,2.3-3.4,3    c1.6-0.4,3.2-0.9,4.7-1.4c1.5-0.5,3-1,4.4-1.6c2.1-0.8,4.1-1.7,6.1-2.7C127.7,140,140.3,102.3,128.1,64.4z"/>
		<path class="st7" d="M10.6,40.1c-0.4,0.8-0.9,1.5-1.3,2.3c-4,12,13.7,46,49.2,68c35.5,22,75.8,24.1,84.8,15.2    c0.5-0.7,1-1.4,1.5-2.1c0.6-0.8,1.1-1.7,1.7-2.6c1.8-2.8,3.3-5.8,4.7-8.7c-16.1,6.4-51-6.8-78.6-23.9    C45.1,71.1,16.2,42.1,17.9,29.4c-2.1,2.5-4,5.2-5.7,8.1C11.6,38.3,11.1,39.2,10.6,40.1z"/>
	</g>
	<g>
		<path class="st1" d="M487.7,20L487.7,20c0-4.7,3.8-8.5,8.5-8.5c4.8,0,8.5,3.8,8.5,8.4v0c0,4.6-3.8,8.5-8.5,8.5    S487.7,24.6,487.7,20z M503.8,20L503.8,20c0-4.2-3.3-7.6-7.6-7.6c-4.3,0-7.6,3.4-7.6,7.6v0c0,4.2,3.3,7.6,7.6,7.6    C500.5,27.6,503.8,24.2,503.8,20z M492.8,15.3h4c1.2,0,2.1,0.4,2.7,0.9c0.5,0.5,0.7,1.1,0.7,1.9v0c0,1.4-0.8,2.3-2.1,2.7l2.4,3.3    h-2l-2.2-3.1h-1.8v3.1h-1.7V15.3z M496.7,19.6c1.1,0,1.8-0.5,1.8-1.4v0c0-0.9-0.7-1.4-1.8-1.4h-2.2v2.8H496.7z"/>
	</g>
</g>
</svg>